<svg width="166" height="36" viewBox="0 0 166 36" fill="none" xmlns="http://www.w3.org/2000/svg">
<path d="M51.4119 13.9091V16.6364H43.5284V13.9091H51.4119ZM45.3182 10.7727H48.9489V22.9773C48.9489 23.3125 49 23.5739 49.1023 23.7614C49.2045 23.9432 49.3466 24.071 49.5284 24.1449C49.7159 24.2187 49.9318 24.2557 50.1761 24.2557C50.3466 24.2557 50.517 24.2415 50.6875 24.2131C50.858 24.179 50.9886 24.1534 51.0795 24.1364L51.6506 26.8381C51.4688 26.8949 51.2131 26.9602 50.8835 27.0341C50.554 27.1136 50.1534 27.1619 49.6818 27.179C48.8068 27.2131 48.0398 27.0966 47.3807 26.8295C46.7273 26.5625 46.2188 26.1477 45.8551 25.5852C45.4915 25.0227 45.3125 24.3125 45.3182 23.4545V10.7727ZM57.5099 27.2472C56.6747 27.2472 55.9304 27.1023 55.277 26.8125C54.6236 26.517 54.1065 26.0824 53.7259 25.5085C53.3509 24.929 53.1634 24.2074 53.1634 23.3438C53.1634 22.6165 53.2969 22.0057 53.5639 21.5114C53.831 21.017 54.1946 20.6193 54.6548 20.3182C55.1151 20.017 55.6378 19.7898 56.223 19.6364C56.8139 19.483 57.4332 19.375 58.081 19.3125C58.8423 19.233 59.456 19.1591 59.9219 19.0909C60.3878 19.017 60.7259 18.9091 60.9361 18.767C61.1463 18.625 61.2514 18.4148 61.2514 18.1364V18.0852C61.2514 17.5455 61.081 17.1278 60.7401 16.8324C60.4048 16.5369 59.9276 16.3892 59.3082 16.3892C58.6548 16.3892 58.1349 16.5341 57.7486 16.8239C57.3622 17.108 57.1065 17.4659 56.9815 17.8977L53.6236 17.625C53.794 16.8295 54.1293 16.142 54.6293 15.5625C55.1293 14.9773 55.7741 14.5284 56.5639 14.2159C57.3594 13.8977 58.2798 13.7386 59.3253 13.7386C60.0526 13.7386 60.7486 13.8239 61.4134 13.9943C62.0838 14.1648 62.6776 14.429 63.1946 14.7869C63.7173 15.1449 64.1293 15.6051 64.4304 16.1676C64.7315 16.7244 64.8821 17.392 64.8821 18.1705V27H61.4389V25.1847H61.3366C61.1264 25.5938 60.8452 25.9545 60.4929 26.267C60.1406 26.5739 59.7173 26.8153 59.223 26.9915C58.7287 27.1619 58.1577 27.2472 57.5099 27.2472ZM58.5497 24.7415C59.0838 24.7415 59.5554 24.6364 59.9645 24.4261C60.3736 24.2102 60.6946 23.9205 60.9276 23.5568C61.1605 23.1932 61.277 22.7812 61.277 22.321V20.9318C61.1634 21.0057 61.0071 21.0739 60.8082 21.1364C60.6151 21.1932 60.3963 21.2472 60.152 21.2983C59.9077 21.3437 59.6634 21.3864 59.419 21.4261C59.1747 21.4602 58.9531 21.4915 58.7543 21.5199C58.3281 21.5824 57.956 21.6818 57.6378 21.8182C57.3196 21.9545 57.0724 22.1392 56.8963 22.3722C56.7202 22.5994 56.6321 22.8835 56.6321 23.2244C56.6321 23.7188 56.8111 24.0966 57.169 24.358C57.5327 24.6136 57.9929 24.7415 58.5497 24.7415ZM74.6619 13.9091V16.6364H66.7784V13.9091H74.6619ZM68.5682 10.7727H72.1989V22.9773C72.1989 23.3125 72.25 23.5739 72.3523 23.7614C72.4545 23.9432 72.5966 24.071 72.7784 24.1449C72.9659 24.2187 73.1818 24.2557 73.4261 24.2557C73.5966 24.2557 73.767 24.2415 73.9375 24.2131C74.108 24.179 74.2386 24.1534 74.3295 24.1364L74.9006 26.8381C74.7188 26.8949 74.4631 26.9602 74.1335 27.0341C73.804 27.1136 73.4034 27.1619 72.9318 27.179C72.0568 27.2131 71.2898 27.0966 70.6307 26.8295C69.9773 26.5625 69.4688 26.1477 69.1051 25.5852C68.7415 25.0227 68.5625 24.3125 68.5682 23.4545V10.7727ZM80.9389 9.54545V27H77.3082V9.54545H80.9389ZM83.8473 27V13.9091H87.478V27H83.8473ZM105.29 16.7812L103.901 17.1733C103.765 16.7812 103.572 16.4261 103.322 16.108C103.072 15.7898 102.745 15.5369 102.342 15.3494C101.944 15.1619 101.45 15.0682 100.859 15.0682C99.9723 15.0682 99.245 15.2784 98.6768 15.6989C98.1087 16.1193 97.8246 16.6619 97.8246 17.3267C97.8246 17.8892 98.0178 18.3466 98.4041 18.6989C98.7962 19.0455 99.3984 19.321 100.211 19.5256L102.188 20.0114C103.285 20.2784 104.106 20.7017 104.651 21.2812C105.202 21.8608 105.478 22.5881 105.478 23.4631C105.478 24.2017 105.273 24.858 104.864 25.4318C104.455 26.0057 103.884 26.4574 103.151 26.7869C102.424 27.1108 101.58 27.2727 100.62 27.2727C99.3416 27.2727 98.2876 26.9858 97.4581 26.4119C96.6286 25.8324 96.0973 24.9972 95.8643 23.9062L97.3217 23.5483C97.5092 24.3267 97.8757 24.9148 98.4212 25.3125C98.9723 25.7102 99.6967 25.9091 100.594 25.9091C101.6 25.9091 102.404 25.6847 103.006 25.2358C103.609 24.7812 103.91 24.2131 103.91 23.5312C103.91 23.0028 103.734 22.5597 103.381 22.2017C103.029 21.8381 102.495 21.571 101.779 21.4006L99.6399 20.8892C98.5036 20.6165 97.6626 20.1847 97.1172 19.5938C96.5717 19.0028 96.299 18.2699 96.299 17.3949C96.299 16.6733 96.495 16.0398 96.8871 15.4943C97.2791 14.9432 97.8189 14.5114 98.5064 14.1989C99.1939 13.8864 99.978 13.7301 100.859 13.7301C102.058 13.7301 103.015 14.0028 103.731 14.5483C104.452 15.0881 104.972 15.8324 105.29 16.7812ZM113.888 27.2727C112.757 27.2727 111.757 26.9858 110.888 26.4119C110.024 25.8381 109.348 25.0455 108.859 24.0341C108.371 23.017 108.126 21.8437 108.126 20.5142C108.126 19.1733 108.371 17.9943 108.859 16.9773C109.348 15.9545 110.024 15.1591 110.888 14.5909C111.757 14.017 112.757 13.7301 113.888 13.7301C115.018 13.7301 116.016 14.017 116.879 14.5909C117.743 15.1648 118.419 15.9602 118.908 16.9773C119.402 17.9943 119.649 19.1733 119.649 20.5142C119.649 21.8437 119.405 23.017 118.916 24.0341C118.428 25.0455 117.749 25.8381 116.879 26.4119C116.016 26.9858 115.018 27.2727 113.888 27.2727ZM113.888 25.8835C114.797 25.8835 115.567 25.6392 116.197 25.1506C116.828 24.6619 117.305 24.0114 117.629 23.1989C117.959 22.3864 118.124 21.4915 118.124 20.5142C118.124 19.5369 117.959 18.6392 117.629 17.821C117.305 17.0028 116.828 16.3466 116.197 15.8523C115.567 15.358 114.797 15.1108 113.888 15.1108C112.984 15.1108 112.214 15.358 111.578 15.8523C110.947 16.3466 110.467 17.0028 110.138 17.821C109.814 18.6392 109.652 19.5369 109.652 20.5142C109.652 21.4915 109.814 22.3864 110.138 23.1989C110.467 24.0114 110.947 24.6619 111.578 25.1506C112.209 25.6392 112.979 25.8835 113.888 25.8835ZM122.57 27V25.7983L130.138 15.4517V15.3409H122.894V13.9091H132.09V15.1619L124.658 25.4574V25.5682H132.363V27H122.57ZM137.223 9.54545V27H135.706V9.54545H137.223ZM149.555 21.9972V13.9091H151.072V27H149.555V24.8267H149.436C149.129 25.4972 148.643 26.0568 147.979 26.5057C147.314 26.9489 146.501 27.1705 145.541 27.1705C144.706 27.1705 143.964 26.9886 143.317 26.625C142.669 26.2557 142.161 25.7159 141.791 25.0057C141.422 24.2955 141.237 23.4233 141.237 22.3892V13.9091H142.754V22.2955C142.754 23.3182 143.055 24.142 143.658 24.767C144.26 25.3864 145.033 25.696 145.976 25.696C146.567 25.696 147.135 25.554 147.68 25.2699C148.226 24.9858 148.675 24.571 149.027 24.0256C149.379 23.4744 149.555 22.7983 149.555 21.9972ZM156.469 22.0568L156.452 20.071H156.793L162.93 13.9091H164.847L158.788 19.9773L158.651 20.0028L156.469 22.0568ZM155.089 27V9.54545H156.606V27H155.089ZM163.245 27L157.927 20.2756L159.018 19.2273L165.188 27H163.245Z" fill="black"/>
<path d="M112 12C112.552 12 113 11.5523 113 11C113 10.4477 112.552 10 112 10C111.448 10 111 10.4477 111 11C111 11.5523 111.448 12 112 12Z" fill="#FF4500"/>
<path d="M115 12C115.552 12 116 11.5523 116 11C116 10.4477 115.552 10 115 10C114.448 10 114 10.4477 114 11C114 11.5523 114.448 12 115 12Z" fill="#FF4500"/>
<path d="M144 12C144.552 12 145 11.5523 145 11C145 10.4477 144.552 10 144 10C143.448 10 143 10.4477 143 11C143 11.5523 143.448 12 144 12Z" fill="#FF4500"/>
<path d="M147 12C147.552 12 148 11.5523 148 11C148 10.4477 147.552 10 147 10C146.448 10 146 10.4477 146 11C146 11.5523 146.448 12 147 12Z" fill="#FF4500"/>
<mask id="mask0_199_1543" style="mask-type:alpha" maskUnits="userSpaceOnUse" x="0" y="0" width="37" height="36">
<path d="M18.091 36C28.0824 36 36.1821 27.9411 36.1821 18C36.1821 8.05888 28.0824 0 18.091 0C8.09963 0 0 8.05888 0 18C0 27.9411 8.09963 36 18.091 36Z" fill="#FF4500"/>
</mask>
<g mask="url(#mask0_199_1543)">
<path d="M18.091 36C28.0824 36 36.1821 27.9411 36.1821 18C36.1821 8.05888 28.0824 0 18.091 0C8.09963 0 0 8.05888 0 18C0 27.9411 8.09963 36 18.091 36Z" fill="#FF4500"/>
<path d="M6.14844 58H7.8418C9.54611 57.5388 10.6558 57.3844 12.0005 55.8833C13.3452 54.3822 14.9758 53.1978 16.2837 51.6001C17.5926 50.0034 19.1783 49.7264 20.5669 51.3511C21.9564 52.9757 23.4964 54.0644 24.8501 55.6343C26.2048 57.2041 27.2128 57.4761 28.8594 58H30.5527C32.7192 57.9522 34.557 56.1473 35.5521 54.4888C36.5472 52.8293 36.4636 50.2853 35.6199 48.6447C34.7762 47.0041 32.514 44.9243 30.7271 43.1831C28.9401 41.4419 28.6741 39.2545 28.959 36.1855C31.1564 35.7134 33.034 35.4215 35.0242 34.3816C37.0154 33.3417 38.1669 30.6194 37.7645 28.4409C37.361 26.2625 36.0761 24.7115 34.0291 23.8429C31.9821 22.9754 29.2279 24.0003 27.2656 24.6309C28.6841 22.5769 29.6483 20.1265 29.3644 17.1522C29.0805 14.1788 28.4809 12.7086 26.4458 10.5092C24.4098 8.31086 22.4664 7.54586 19.7949 7H17.9023C14.8145 7.36656 12.8691 8.09969 10.7554 10.312C8.64166 12.5233 7.88861 14.0723 7.56389 17.0376C7.23916 20.004 8.40061 22.6038 9.73438 24.6309C7.72525 23.8928 5.01887 23.0859 2.98584 23.9147C0.953809 24.7434 -0.390918 26.2864 -0.744531 28.4907C-1.09814 30.6961 0.00851536 33.4373 1.99672 34.4603C3.98492 35.4833 5.85857 35.6516 8.04102 36.1855C8.3498 39.2635 8.02607 41.4439 6.32275 43.2329C4.61943 45.0219 2.20092 47.026 1.38014 48.6447C0.559355 50.2643 0.436836 52.8263 1.44787 54.4888C2.45891 56.1503 4.13932 57.755 6.14844 58ZM28.2617 26.4238C27.8633 28.0524 29.9431 28.5176 30.7221 29.5416C31.502 30.5646 29.7638 32.6972 31.0508 33.6953C29.8375 33.7391 29.3983 34.4205 28.1372 34.4723C26.8762 34.5241 26.6899 36.2702 26.8672 37.6797C27.0445 39.0892 26.8383 40.2516 27.2059 41.2407C27.5724 42.2298 27.8782 42.7259 28.3803 43.5815C28.8833 44.4372 30.3705 45.2839 30.9512 46.3457C30.1623 47.0081 29.0158 47.8179 29.1791 49.0581C29.3435 50.2982 28.0735 50.87 26.9917 50.867C25.9099 50.865 25.2525 51.8163 24.6758 52.7207C22.4734 50.7435 20.9036 48.2213 18.497 48.2363C16.0914 48.2502 14.5565 50.5034 12.4238 52.6211C11.6947 51.7744 10.9566 50.8809 9.9585 50.868C8.96041 50.854 7.69936 50.3869 7.77705 49.1646C7.85475 47.9434 7.03297 46.8706 6.04883 46.3457C6.86065 45.0966 8.555 44.0158 9.00723 43.0287C9.45945 42.0416 9.9057 41.182 9.99336 39.9956C10.082 38.8093 10.6548 35.3389 9.55807 34.6346C8.46137 33.9304 7.11365 34.278 5.94922 33.6953C7.17043 32.6723 5.59262 30.6612 6.30582 29.6342C7.01803 28.6073 9.15465 28.0275 8.73828 26.4238C9.86387 26.4338 11.7146 27.7427 12.5344 26.2356C13.3532 24.7285 11.1518 23.4595 10.6607 22.4096C10.1697 21.3597 9.68756 20.1474 9.57002 18.6842C9.45248 17.2209 9.80609 15.3811 10.2713 14.2964C10.7374 13.2106 11.7166 11.9615 12.897 11.0581C14.0773 10.1546 14.8802 9.54004 16.3335 9.21531C17.7858 8.89158 19.4702 8.88561 20.9155 9.31094C22.3609 9.73527 23.094 10.1626 24.3521 11.1228C25.6111 12.0841 26.2546 13.4896 26.7935 14.5454C27.3334 15.6023 27.4987 17.6134 27.4051 19.0268C27.3114 20.4413 26.6839 21.4473 26.146 22.5162C25.6091 23.585 23.7474 24.8679 24.5473 26.2545C25.3471 27.6401 27.0684 26.5025 28.2617 26.4238ZM6.8457 25.8262C6.70924 27.4299 5.03082 27.6381 4.41623 28.9888C3.80164 30.3405 4.88141 31.8505 3.95703 33.0977C1.83635 32.6175 0.694824 30.1373 1.42596 28.0425C2.15709 25.9477 4.51484 24.9944 6.8457 25.8262ZM33.043 33.0977C32.1833 32.2161 32.8238 31.486 32.9035 30.4331C32.9842 29.3802 32.516 28.6103 31.773 27.8931C31.0299 27.1759 29.976 27.0972 30.2539 25.7266C32.4533 25.111 34.7662 25.8561 35.59 27.9947C36.4148 30.1333 35.1119 32.6136 33.043 33.0977ZM4.55469 47.8398C5.58266 47.9235 5.97412 49.3768 6.01994 50.2603C6.06477 51.1429 7.28199 52.2794 8.11572 52.5803C8.94846 52.8811 10.9327 52.7247 10.7872 53.9927C10.6428 55.2607 9.02615 55.5018 8.21733 55.8295C7.4075 56.1572 6.004 55.9271 5.27486 55.5516C4.54572 55.1771 3.48588 54.3991 3.14721 53.5255C2.80854 52.652 2.52365 51.6688 2.77467 50.6369C3.02568 49.6049 3.48289 48.6935 4.55469 47.8398ZM32.5449 47.8398C33.552 48.7473 33.8578 49.4515 34.1586 50.4546C34.4584 51.4567 34.2512 52.6131 33.9006 53.4927C33.549 54.3732 32.4393 55.1791 31.7231 55.5287C31.006 55.8783 29.5626 56.228 28.7369 55.8315C27.9111 55.4351 26.4727 55.3763 26.2486 54.0923C26.0235 52.8084 28.0027 52.8542 28.8673 52.6151C29.7329 52.3761 30.8834 51.1429 30.9721 50.3072C31.0607 49.4714 31.2968 47.8817 32.5449 47.8398Z" fill="white" fill-opacity="0.98"/>
<path d="M28.2617 26.4238C27.0684 26.5025 25.3471 27.6401 24.5473 26.2545C23.7474 24.8679 25.6091 23.585 26.146 22.5162C26.6839 21.4473 27.3114 20.4413 27.4051 19.0268C27.4987 17.6134 27.3334 15.6023 26.7935 14.5454C26.2546 13.4896 25.6111 12.0841 24.3521 11.1228C23.094 10.1626 22.3609 9.73527 20.9155 9.31094C19.4702 8.88561 17.7858 8.89158 16.3335 9.21531C14.8802 9.54004 14.0773 10.1546 12.897 11.0581C11.7166 11.9615 10.7374 13.2106 10.2713 14.2964C9.80609 15.3811 9.45248 17.2209 9.57002 18.6842C9.68756 20.1474 10.1697 21.3597 10.6607 22.4096C11.1518 23.4595 13.3532 24.7285 12.5344 26.2356C11.7146 27.7427 9.86387 26.4338 8.73828 26.4238C9.15465 28.0275 7.01803 28.6073 6.30582 29.6342C5.59262 30.6612 7.17043 32.6723 5.94922 33.6953C7.11365 34.278 8.46137 33.9304 9.55807 34.6346C10.6548 35.3389 10.082 38.8093 9.99336 39.9956C9.9057 41.182 9.45945 42.0416 9.00723 43.0287C8.555 44.0158 6.86065 45.0966 6.04883 46.3457C7.03297 46.8706 7.85475 47.9434 7.77705 49.1646C7.69936 50.3869 8.96041 50.854 9.9585 50.868C10.9566 50.8809 11.6947 51.7744 12.4238 52.6211C14.5565 50.5034 16.0914 48.2502 18.497 48.2363C20.9036 48.2213 22.4734 50.7435 24.6758 52.7207C25.2525 51.8163 25.9099 50.865 26.9917 50.867C28.0735 50.87 29.3435 50.2982 29.1791 49.0581C29.0158 47.8179 30.1623 47.0081 30.9512 46.3457C30.3705 45.2839 28.8833 44.4372 28.3803 43.5815C27.8782 42.7259 27.5724 42.2298 27.2059 41.2407C26.8383 40.2516 27.0445 39.0892 26.8672 37.6797C26.6899 36.2702 26.8762 34.5241 28.1372 34.4723C29.3983 34.4205 29.8375 33.7391 31.0508 33.6953C29.7638 32.6972 31.502 30.5646 30.7221 29.5416C29.9431 28.5176 27.8633 28.0524 28.2617 26.4238ZM14.1172 15.666C15.2976 15.2606 15.9998 17.2847 14.7447 17.6223C13.4906 17.961 12.9179 16.0784 14.1172 15.666ZM22.9824 15.666C23.8181 16.2637 23.6189 17.7449 22.5591 17.7339C21.5002 17.7229 21.2114 16.2726 22.0859 15.666C22.5 15 22.5 15 22.9824 15.666ZM22.0859 20.3477C22.0949 22.0888 20.2163 23.5371 18.497 23.5332C16.7787 23.5282 14.9121 22.0978 14.9141 20.3477C15.4271 19.507 16.458 19.8357 16.8256 20.4722C17.1931 21.1077 17.8416 21.533 18.508 21.535C19.1744 21.537 19.8168 21.0878 20.2163 20.4702C20.6157 19.8526 21.5062 19.485 22.0859 20.3477ZM18.2012 29.6113C19.4274 29.3862 20.0121 31.1453 18.7889 31.5946C17.5657 32.0438 17.0198 29.8285 18.2012 29.6113ZM19.4961 34.5918C19.7521 35.8429 18.3655 36.581 17.5039 35.4883C17.5866 35.1835 17.5856 34.9046 17.5039 34.5918C18.1733 33.9105 18.8247 33.9115 19.4961 34.5918ZM25.4727 35.0898C25.3521 36.4176 25.5892 38.5812 25.5374 39.9398C25.4846 41.2995 25.9259 41.5346 26.0504 42.6851C26.1749 43.8346 24.5084 44.0417 24.1568 42.9361C23.8052 41.8294 23.5382 41.2875 23.5592 39.9478C23.5801 38.608 23.3958 36.3957 23.4805 35.0898C24.1498 34.4085 24.8013 34.4095 25.4727 35.0898ZM18.2012 38.4766C19.4274 38.2514 20.0121 40.0105 18.7889 40.4598C17.5657 40.909 17.0198 38.6937 18.2012 38.4766ZM27.9629 45.1504C28.0824 45.9014 27.7577 46.533 26.9588 46.5519C26.159 46.5698 25.7605 45.7889 26.0962 45.0757C26.4319 44.3625 27.3563 44.5607 27.9629 45.1504Z" fill="white" fill-opacity="0.01"/>
<path d="M14.7447 17.6223C13.4906 17.961 12.9179 16.0784 14.1172 15.666C15.2976 15.2606 15.9998 17.2847 14.7447 17.6223Z" fill="white" fill-opacity="0.94"/>
<path d="M22.9824 15.666C22.5 15 22.5 15 22.0859 15.666C21.2114 16.2726 21.5002 17.7229 22.5591 17.7339C23.6189 17.7449 23.8181 16.2637 22.9824 15.666Z" fill="white" fill-opacity="0.95"/>
<path d="M22.0859 20.3477C21.5062 19.485 20.6157 19.8526 20.2163 20.4702C19.8168 21.0878 19.1744 21.537 18.508 21.535C17.8416 21.533 17.1931 21.1077 16.8256 20.4722C16.458 19.8357 15.4271 19.507 14.9141 20.3477C14.9121 22.0978 16.7787 23.5282 18.497 23.5332C20.2163 23.5371 22.0949 22.0888 22.0859 20.3477Z" fill="white" fill-opacity="0.97"/>
<path d="M6.8457 25.8262C4.51484 24.9944 2.15709 25.9477 1.42596 28.0425C0.694824 30.1373 1.83635 32.6175 3.95703 33.0977C4.88141 31.8505 3.80164 30.3405 4.41623 28.9888C5.03082 27.6381 6.70924 27.4299 6.8457 25.8262Z" fill="white" fill-opacity="0.02"/>
<path d="M33.043 33.0977C35.1119 32.6136 36.4148 30.1333 35.59 27.9947C34.7662 25.8561 32.4533 25.111 30.2539 25.7266C29.976 27.0972 31.0299 27.1759 31.773 27.8931C32.516 28.6103 32.9842 29.3802 32.9035 30.4331C32.8238 31.486 32.1833 32.2161 33.043 33.0977Z" fill="white" fill-opacity="0.02"/>
<path d="M18.7889 31.5946C17.5657 32.0438 17.0198 29.8285 18.2012 29.6113C19.4274 29.3862 20.0121 31.1453 18.7889 31.5946Z" fill="white" fill-opacity="0.95"/>
<path d="M19.4961 34.5918C18.8247 33.9115 18.1733 33.9105 17.5039 34.5918C17.5856 34.9046 17.5866 35.1835 17.5039 35.4883C18.3655 36.581 19.7521 35.8429 19.4961 34.5918Z" fill="white" fill-opacity="0.95"/>
<path d="M25.4727 35.0898C24.8013 34.4095 24.1498 34.4085 23.4805 35.0898C23.3958 36.3957 23.5801 38.608 23.5592 39.9478C23.5382 41.2875 23.8052 41.8294 24.1568 42.9361C24.5084 44.0417 26.1749 43.8346 26.0504 42.6851C25.9259 41.5346 25.4846 41.2995 25.5374 39.9398C25.5892 38.5812 25.3521 36.4176 25.4727 35.0898Z" fill="white" fill-opacity="0.98"/>
<path d="M18.7889 40.4598C17.5657 40.909 17.0198 38.6937 18.2012 38.4766C19.4274 38.2514 20.0121 40.0105 18.7889 40.4598Z" fill="white" fill-opacity="0.95"/>
<path d="M27.9629 45.1504C27.3563 44.5607 26.4319 44.3625 26.0962 45.0757C25.7605 45.7889 26.159 46.5698 26.9588 46.5519C27.7577 46.533 28.0824 45.9014 27.9629 45.1504Z" fill="white" fill-opacity="0.94"/>
<path d="M4.55469 47.8398C3.48289 48.6935 3.02568 49.6049 2.77467 50.6369C2.52365 51.6688 2.80854 52.652 3.14721 53.5255C3.48588 54.3991 4.54572 55.1771 5.27486 55.5516C6.004 55.9271 7.4075 56.1572 8.21733 55.8295C9.02615 55.5018 10.6428 55.2607 10.7872 53.9927C10.9327 52.7247 8.94846 52.8811 8.11572 52.5803C7.28199 52.2794 6.06477 51.1429 6.01994 50.2603C5.97412 49.3768 5.58266 47.9235 4.55469 47.8398Z" fill="white" fill-opacity="0.02"/>
<path d="M32.5449 47.8398C31.2968 47.8817 31.0607 49.4714 30.9721 50.3072C30.8834 51.1429 29.7329 52.3761 28.8673 52.6151C28.0027 52.8542 26.0235 52.8084 26.2486 54.0923C26.4727 55.3763 27.9111 55.4351 28.7369 55.8315C29.5626 56.228 31.006 55.8783 31.7231 55.5287C32.4393 55.1791 33.549 54.3732 33.9006 53.4927C34.2512 52.6131 34.4584 51.4567 34.1586 50.4546C33.8578 49.4515 33.552 48.7473 32.5449 47.8398Z" fill="white" fill-opacity="0.02"/>
<path d="M-7 58H6.14844M6.14844 58C4.13932 57.755 2.45891 56.1503 1.44787 54.4888C0.436836 52.8263 0.559355 50.2643 1.38014 48.6447C2.20092 47.026 4.61943 45.0219 6.32275 43.2329C8.02607 41.4439 8.3498 39.2635 8.04102 36.1855C5.85857 35.6516 3.98492 35.4833 1.99672 34.4603C0.00851536 33.4373 -1.09814 30.6961 -0.744531 28.4907C-0.390918 26.2864 0.953809 24.7434 2.98584 23.9147C5.01887 23.0859 7.72525 23.8928 9.73438 24.6309C8.40061 22.6038 7.23916 20.004 7.56389 17.0376C7.88861 14.0723 8.64166 12.5233 10.7554 10.312C12.8691 8.09969 14.8145 7.36656 17.9023 7H19.7949C22.4664 7.54586 24.4098 8.31086 26.4458 10.5092C28.4809 12.7086 29.0805 14.1788 29.3644 17.1522C29.6483 20.1265 28.6841 22.5769 27.2656 24.6309C29.2279 24.0003 31.9821 22.9754 34.0291 23.8429C36.0761 24.7115 37.361 26.2625 37.7645 28.4409C38.1669 30.6194 37.0154 33.3417 35.0242 34.3816C33.034 35.4215 31.1564 35.7134 28.959 36.1855C28.6741 39.2545 28.9401 41.4419 30.7271 43.1831C32.514 44.9243 34.7762 47.0041 35.6199 48.6447C36.4636 50.2853 36.5472 52.8293 35.5521 54.4888C34.557 56.1473 32.7192 57.9522 30.5527 58M6.14844 58H7.8418M7.8418 58C9.54611 57.5388 10.6558 57.3844 12.0005 55.8833C13.3452 54.3822 14.9758 53.1978 16.2837 51.6001C17.5926 50.0034 19.1783 49.7264 20.5669 51.3511C21.9564 52.9757 23.4964 54.0644 24.8501 55.6343C26.2048 57.2041 27.2128 57.4761 28.8594 58M7.8418 58H28.8594M28.8594 58H30.5527M30.5527 58H44M28.2617 26.4238C27.8633 28.0524 29.9431 28.5176 30.7221 29.5416C31.502 30.5646 29.7638 32.6972 31.0508 33.6953C29.8375 33.7391 29.3983 34.4205 28.1372 34.4723C26.8762 34.5241 26.6899 36.2702 26.8672 37.6797C27.0445 39.0892 26.8383 40.2516 27.2059 41.2407C27.5724 42.2298 27.8782 42.7259 28.3803 43.5815C28.8833 44.4372 30.3705 45.2839 30.9512 46.3457C30.1623 47.0081 29.0158 47.8179 29.1791 49.0581C29.3435 50.2982 28.0735 50.87 26.9917 50.867C25.9099 50.865 25.2525 51.8163 24.6758 52.7207C22.4734 50.7435 20.9036 48.2213 18.497 48.2363C16.0914 48.2502 14.5565 50.5034 12.4238 52.6211C11.6947 51.7744 10.9566 50.8809 9.9585 50.868C8.96041 50.854 7.69936 50.3869 7.77705 49.1646C7.85475 47.9434 7.03297 46.8706 6.04883 46.3457C6.86065 45.0966 8.555 44.0158 9.00723 43.0287C9.45945 42.0416 9.9057 41.182 9.99336 39.9956C10.082 38.8093 10.6548 35.3389 9.55807 34.6346C8.46137 33.9304 7.11365 34.278 5.94922 33.6953C7.17043 32.6723 5.59262 30.6612 6.30582 29.6342C7.01803 28.6073 9.15465 28.0275 8.73828 26.4238C9.86387 26.4338 11.7146 27.7427 12.5344 26.2356C13.3532 24.7285 11.1518 23.4595 10.6607 22.4096C10.1697 21.3597 9.68756 20.1474 9.57002 18.6842C9.45248 17.2209 9.80609 15.3811 10.2713 14.2964C10.7374 13.2106 11.7166 11.9615 12.897 11.0581C14.0773 10.1546 14.8802 9.54004 16.3335 9.21531C17.7858 8.89158 19.4702 8.88561 20.9155 9.31094C22.3609 9.73527 23.094 10.1626 24.3521 11.1228C25.6111 12.0841 26.2546 13.4896 26.7935 14.5454C27.3334 15.6023 27.4987 17.6134 27.4051 19.0268C27.3114 20.4413 26.6839 21.4473 26.146 22.5162C25.6091 23.585 23.7474 24.8679 24.5473 26.2545C25.3471 27.6401 27.0684 26.5025 28.2617 26.4238ZM6.8457 25.8262C6.70924 27.4299 5.03082 27.6381 4.41623 28.9888C3.80164 30.3405 4.88141 31.8505 3.95703 33.0977C1.83635 32.6175 0.694824 30.1373 1.42596 28.0425C2.15709 25.9477 4.51484 24.9944 6.8457 25.8262ZM33.043 33.0977C32.1833 32.2161 32.8238 31.486 32.9035 30.4331C32.9842 29.3802 32.516 28.6103 31.773 27.8931C31.0299 27.1759 29.976 27.0972 30.2539 25.7266C32.4533 25.111 34.7662 25.8561 35.59 27.9947C36.4148 30.1333 35.1119 32.6136 33.043 33.0977ZM4.55469 47.8398C5.58266 47.9235 5.97412 49.3768 6.01994 50.2603C6.06477 51.1429 7.28199 52.2794 8.11572 52.5803C8.94846 52.8811 10.9327 52.7247 10.7872 53.9927C10.6428 55.2607 9.02615 55.5018 8.21733 55.8295C7.4075 56.1572 6.004 55.9271 5.27486 55.5516C4.54572 55.1771 3.48588 54.3991 3.14721 53.5255C2.80854 52.652 2.52365 51.6688 2.77467 50.6369C3.02568 49.6049 3.48289 48.6935 4.55469 47.8398ZM32.5449 47.8398C33.552 48.7473 33.8578 49.4515 34.1586 50.4546C34.4584 51.4567 34.2512 52.6131 33.9006 53.4927C33.549 54.3732 32.4393 55.1791 31.7231 55.5287C31.006 55.8783 29.5626 56.228 28.7369 55.8315C27.9111 55.4351 26.4727 55.3763 26.2486 54.0923C26.0235 52.8084 28.0027 52.8542 28.8673 52.6151C29.7329 52.3761 30.8834 51.1429 30.9721 50.3072C31.0607 49.4714 31.2968 47.8817 32.5449 47.8398ZM14.1172 15.666C15.2976 15.2606 15.9998 17.2847 14.7447 17.6223C13.4906 17.961 12.9179 16.0784 14.1172 15.666ZM22.9824 15.666C23.8181 16.2637 23.6189 17.7449 22.5591 17.7339C21.5002 17.7229 21.2114 16.2726 22.0859 15.666C22.5 15 22.5 15 22.9824 15.666ZM22.0859 20.3477C22.0949 22.0888 20.2163 23.5371 18.497 23.5332C16.7787 23.5282 14.9121 22.0978 14.9141 20.3477C15.4271 19.507 16.458 19.8357 16.8256 20.4722C17.1931 21.1077 17.8416 21.533 18.508 21.535C19.1744 21.537 19.8168 21.0878 20.2163 20.4702C20.6157 19.8526 21.5062 19.485 22.0859 20.3477ZM18.2012 29.6113C19.4274 29.3862 20.0121 31.1453 18.7889 31.5946C17.5657 32.0438 17.0198 29.8285 18.2012 29.6113ZM19.4961 34.5918C19.7521 35.8429 18.3655 36.581 17.5039 35.4883C17.5866 35.1835 17.5856 34.9046 17.5039 34.5918C18.1733 33.9105 18.8247 33.9115 19.4961 34.5918ZM25.4727 35.0898C25.3521 36.4176 25.5892 38.5812 25.5374 39.9398C25.4846 41.2995 25.9259 41.5346 26.0504 42.6851C26.1749 43.8346 24.5084 44.0417 24.1568 42.9361C23.8052 41.8294 23.5382 41.2875 23.5592 39.9478C23.5801 38.608 23.3958 36.3957 23.4805 35.0898C24.1498 34.4085 24.8013 34.4095 25.4727 35.0898ZM18.2012 38.4766C19.4274 38.2514 20.0121 40.0105 18.7889 40.4598C17.5657 40.909 17.0198 38.6937 18.2012 38.4766ZM27.9629 45.1504C28.0824 45.9014 27.7577 46.533 26.9588 46.5519C26.159 46.5698 25.7605 45.7889 26.0962 45.0757C26.4319 44.3625 27.3563 44.5607 27.9629 45.1504Z" stroke="white" stroke-width="0.1"/>
</g>
</svg>
